<svg width="1127" height="383" viewBox="0 0 1127 383" fill="none" xmlns="http://www.w3.org/2000/svg">
<path d="M128.5 103.01V131.825H54.295V177.47H111.16V205.775H54.295V281H18.595V103.01H128.5ZM144.635 209.855C144.635 195.575 147.44 182.91 153.05 171.86C158.83 160.81 166.565 152.31 176.255 146.36C186.115 140.41 197.08 137.435 209.15 137.435C219.69 137.435 228.87 139.56 236.69 143.81C244.68 148.06 251.055 153.415 255.815 159.875V139.73H291.77V281H255.815V260.345C251.225 266.975 244.85 272.5 236.69 276.92C228.7 281.17 219.435 283.295 208.895 283.295C196.995 283.295 186.115 280.235 176.255 274.115C166.565 267.995 158.83 259.41 153.05 248.36C147.44 237.14 144.635 224.305 144.635 209.855ZM255.815 210.365C255.815 201.695 254.115 194.3 250.715 188.18C247.315 181.89 242.725 177.13 236.945 173.9C231.165 170.5 224.96 168.8 218.33 168.8C211.7 168.8 205.58 170.415 199.97 173.645C194.36 176.875 189.77 181.635 186.2 187.925C182.8 194.045 181.1 201.355 181.1 209.855C181.1 218.355 182.8 225.835 186.2 232.295C189.77 238.585 194.36 243.43 199.97 246.83C205.75 250.23 211.87 251.93 218.33 251.93C224.96 251.93 231.165 250.315 236.945 247.085C242.725 243.685 247.315 238.925 250.715 232.805C254.115 226.515 255.815 219.035 255.815 210.365ZM380.697 283.295C369.137 283.295 358.767 281.255 349.587 277.175C340.407 272.925 333.097 267.23 327.657 260.09C322.387 252.95 319.497 245.045 318.987 236.375H354.942C355.622 241.815 358.257 246.32 362.847 249.89C367.607 253.46 373.472 255.245 380.442 255.245C387.242 255.245 392.512 253.885 396.252 251.165C400.162 248.445 402.117 244.96 402.117 240.71C402.117 236.12 399.737 232.72 394.977 230.51C390.387 228.13 382.992 225.58 372.792 222.86C362.252 220.31 353.582 217.675 346.782 214.955C340.152 212.235 334.372 208.07 329.442 202.46C324.682 196.85 322.302 189.285 322.302 179.765C322.302 171.945 324.512 164.805 328.932 158.345C333.522 151.885 339.982 146.785 348.312 143.045C356.812 139.305 366.757 137.435 378.147 137.435C394.977 137.435 408.407 141.685 418.437 150.185C428.467 158.515 433.992 169.82 435.012 184.1H400.842C400.332 178.49 397.952 174.07 393.702 170.84C389.622 167.44 384.097 165.74 377.127 165.74C370.667 165.74 365.652 166.93 362.082 169.31C358.682 171.69 356.982 175.005 356.982 179.255C356.982 184.015 359.362 187.67 364.122 190.22C368.882 192.6 376.277 195.065 386.307 197.615C396.507 200.165 404.922 202.8 411.552 205.52C418.182 208.24 423.877 212.49 428.637 218.27C433.567 223.88 436.117 231.36 436.287 240.71C436.287 248.87 433.992 256.18 429.402 262.64C424.982 269.1 418.522 274.2 410.022 277.94C401.692 281.51 391.917 283.295 380.697 283.295ZM641.032 137.69C658.372 137.69 672.312 143.045 682.852 153.755C693.562 164.295 698.917 179.085 698.917 198.125V281H663.217V202.97C663.217 191.92 660.412 183.505 654.802 177.725C649.192 171.775 641.542 168.8 631.852 168.8C622.162 168.8 614.427 171.775 608.647 177.725C603.037 183.505 600.232 191.92 600.232 202.97V281H564.532V202.97C564.532 191.92 561.727 183.505 556.117 177.725C550.507 171.775 542.857 168.8 533.167 168.8C523.307 168.8 515.487 171.775 509.707 177.725C504.097 183.505 501.292 191.92 501.292 202.97V281H465.592V139.73H501.292V156.815C505.882 150.865 511.747 146.19 518.887 142.79C526.197 139.39 534.187 137.69 542.857 137.69C553.907 137.69 563.767 140.07 572.437 144.83C581.107 149.42 587.822 156.05 592.582 164.72C597.172 156.56 603.802 150.015 612.472 145.085C621.312 140.155 630.832 137.69 641.032 137.69ZM748.604 282.785C742.144 282.785 736.789 280.83 732.539 276.92C728.459 272.84 726.419 267.825 726.419 261.875C726.419 255.925 728.459 250.995 732.539 247.085C736.789 243.005 742.144 240.965 748.604 240.965C754.894 240.965 760.079 243.005 764.159 247.085C768.239 250.995 770.279 255.925 770.279 261.875C770.279 267.825 768.239 272.84 764.159 276.92C760.079 280.83 754.894 282.785 748.604 282.785ZM854.369 137.435C864.909 137.435 874.174 139.56 882.164 143.81C890.154 147.89 896.444 153.245 901.034 159.875V139.73H936.989V282.02C936.989 295.11 934.354 306.755 929.084 316.955C923.814 327.325 915.909 335.485 905.369 341.435C894.829 347.555 882.079 350.615 867.119 350.615C847.059 350.615 830.569 345.94 817.649 336.59C804.899 327.24 797.674 314.49 795.974 298.34H831.419C833.289 304.8 837.284 309.9 843.404 313.64C849.694 317.55 857.259 319.505 866.099 319.505C876.469 319.505 884.884 316.36 891.344 310.07C897.804 303.95 901.034 294.6 901.034 282.02V260.09C896.444 266.72 890.069 272.245 881.909 276.665C873.919 281.085 864.739 283.295 854.369 283.295C842.469 283.295 831.589 280.235 821.729 274.115C811.869 267.995 804.049 259.41 798.269 248.36C792.659 237.14 789.854 224.305 789.854 209.855C789.854 195.575 792.659 182.91 798.269 171.86C804.049 160.81 811.784 152.31 821.474 146.36C831.334 140.41 842.299 137.435 854.369 137.435ZM901.034 210.365C901.034 201.695 899.334 194.3 895.934 188.18C892.534 181.89 887.944 177.13 882.164 173.9C876.384 170.5 870.179 168.8 863.549 168.8C856.919 168.8 850.799 170.415 845.189 173.645C839.579 176.875 834.989 181.635 831.419 187.925C828.019 194.045 826.319 201.355 826.319 209.855C826.319 218.355 828.019 225.835 831.419 232.295C834.989 238.585 839.579 243.43 845.189 246.83C850.969 250.23 857.089 251.93 863.549 251.93C870.179 251.93 876.384 250.315 882.164 247.085C887.944 243.685 892.534 238.925 895.934 232.805C899.334 226.515 901.034 219.035 901.034 210.365ZM962.677 209.855C962.677 195.575 965.482 182.91 971.092 171.86C976.872 160.81 984.607 152.31 994.297 146.36C1004.16 140.41 1015.12 137.435 1027.19 137.435C1037.73 137.435 1046.91 139.56 1054.73 143.81C1062.72 148.06 1069.1 153.415 1073.86 159.875V139.73H1109.81V281H1073.86V260.345C1069.27 266.975 1062.89 272.5 1054.73 276.92C1046.74 281.17 1037.48 283.295 1026.94 283.295C1015.04 283.295 1004.16 280.235 994.297 274.115C984.607 267.995 976.872 259.41 971.092 248.36C965.482 237.14 962.677 224.305 962.677 209.855ZM1073.86 210.365C1073.86 201.695 1072.16 194.3 1068.76 188.18C1065.36 181.89 1060.77 177.13 1054.99 173.9C1049.21 170.5 1043 168.8 1036.37 168.8C1029.74 168.8 1023.62 170.415 1018.01 173.645C1012.4 176.875 1007.81 181.635 1004.24 187.925C1000.84 194.045 999.142 201.355 999.142 209.855C999.142 218.355 1000.84 225.835 1004.24 232.295C1007.81 238.585 1012.4 243.43 1018.01 246.83C1023.79 250.23 1029.91 251.93 1036.37 251.93C1043 251.93 1049.21 250.315 1054.99 247.085C1060.77 243.685 1065.36 238.925 1068.76 232.805C1072.16 226.515 1073.86 219.035 1073.86 210.365Z" fill="white"/>
</svg>
